<svg xmlns="http://www.w3.org/2000/svg" version="1.1" xmlns:xlink="http://www.w3.org/1999/xlink" width="100%" height="100%" viewBox="0 0 1500 1500"><rect width="1500" height="1500" x="0" y="0" id="background" stroke="transparent" fill="none"></rect><svg xml:space="preserve" width="1000" height="1000" data-version="2" data-id="lg_gXK3kCPrWsoZELIMmG" viewBox="0 0 816 816" x="250" y="250"><rect width="100%" height="100%" fill="transparent"></rect><circle r="400.18" fill="#ec4104" transform="translate(408 408)"></circle><path fill="#fff" d="M550.89 232.08q7.76 0 19.11 10.25 11.36 10.25 11.36 17.45 0 33.8-2.22 92.52-.55 14.41-1.1 34.63-.56 20.22-.56 46.81 0 84.21 9.97 124.1-.55 13.29-10.52 19.11-9.97 5.82-19.95 5.82-22.16 0-29.08-15.52-6.93-15.51-6.93-44.32 0-106.92 2.22-196.67-63.71 70.92-99.17 119.11l-9.97 6.65q-9.42 8.31-15.51 8.31-14.4 0-23.82-7.2t-18.28-21.05l-26.6-37.67q-27.7-38.78-40.44-58.73 0 50.97 4.99 138.5 3.88 50.42 3.88 75.9 0 13.3-6.65 22.44t-21.05 9.14q-14.41 0-23.55-5.54t-9.69-16.62q.55-9.42.55-31.03 0-43.21-2.77-105.26L234 393.3l-1.11-38.78q-.55-17.18-1.1-40.17-.56-22.99-.56-50.13 0-33.24 36.01-33.24 11.08 0 22.44 5.54 11.36 5.54 16.9 16.06 4.43 19.39 32.68 64.27 28.26 44.87 55.4 84.2 24.38-31.02 39.89-46.53 26.59-27.15 44.04-50.42 17.45-23.26 37.95-55.95 4.99-6.65 14.41-11.36 9.41-4.71 19.94-4.71" paint-order="stroke"></path><rect width="356.22" height="351.79" x="-178.11" y="-175.9" fill="none" rx="0" ry="0" transform="translate(409.84 407.38)"></rect></svg></svg>
